<?xml version="1.0" encoding="utf-8"?>
<!-- Generator: Adobe Illustrator 19.0.0, SVG Export Plug-In . SVG Version: 6.00 Build 0)  -->
<svg version="1.1" id="Layer_1" xmlns="http://www.w3.org/2000/svg" xmlns:xlink="http://www.w3.org/1999/xlink" x="0px" y="0px"
	 viewBox="0 0 1000 803.6" style="enable-background:new 0 0 1000 803.6;" xml:space="preserve">
<style type="text/css">
	.st0{fill:url(#XMLID_15_);}
</style>
<linearGradient id="XMLID_15_" gradientUnits="userSpaceOnUse" x1="500" y1="-90.6942" x2="500" y2="1050.1106">
	<stop  offset="0" style="stop-color:#00AEEF"/>
	<stop  offset="1" style="stop-color:#2B3990"/>
</linearGradient>
<path id="XMLID_80_" class="st0" d="M0,495.4c0.3,8.3,3.8,15.8,9.3,21.3c5.7,5.7,13.6,9.2,22.4,9.2h61.1c8.1,0,14.7,6.6,14.7,14.7v0
	c0,8.1-6.6,14.7-14.7,14.7l-23.5,0c-17.9,0-33.7,14.7-33.1,32.6c0.3,8.3,3.8,15.8,9.3,21.3c5.7,5.8,13.6,9.3,22.3,9.3h116.4
	c8.1,0,14.7,6.6,14.7,14.7l0,0c0,8.1-6.6,14.7-14.7,14.7l-8.9,0c-16.7,0-31.6,12.4-32.9,29c-0.8,9.7,2.8,18.6,9.2,24.9
	c5.7,5.8,13.6,9.3,22.4,9.3h126.6c7.4,0,13.4,6,13.4,13.4v2.6c0,7.4-6,13.4-13.4,13.4h-74.6c-17.5,0-31.6,14.2-31.6,31.6
	c0,8.7,3.6,16.6,9.3,22.3c5.7,5.7,13.6,9.3,22.4,9.3l129.3,0c16.7,0,31.6-12.4,32.9-29c0.8-9.7-2.9-18.6-9.1-24.9
	c-5.7-5.7-13.6-9.3-22.4-9.3l0,0c-7.4,0-13.4-6-13.4-13.4v-2.6c0-7.4,6-13.4,13.4-13.4l15.7,0c16.8,0,31.7-12.5,32.9-29.3
	c0.7-9.6-2.9-18.4-9.1-24.6c-5.7-5.7-13.6-9.3-22.4-9.3H242.8c-8.1,0-14.7-6.6-14.7-14.7v0c0-8.1,6.6-14.7,14.7-14.7h549.5
	c17.4,0,31.6-14.1,31.6-31.6c0-8.7-3.5-16.6-9.2-22.3c-5.7-5.7-13.6-9.3-22.4-9.3h-173c-8.1,0-14.7-6.6-14.7-14.7v0
	c0-8.1,6.6-14.7,14.7-14.7h279.1c17.5,0,31.6-14.1,31.6-31.6c0-8.8-3.5-16.6-9.3-22.4c-5.7-5.7-13.6-9.3-22.4-9.3H736.6
	c-8.1,0-14.6-6.6-14.6-14.6v0c0-8.1,6.6-14.6,14.6-14.6l230.1,0c18,0,33.8-14.7,33.2-32.7c-0.3-8.3-3.8-15.8-9.3-21.3
	c-5.7-5.7-13.6-9.2-22.3-9.2h-44.6c-8.1,0-14.7-6.6-14.7-14.7v0c0-8.1,6.6-14.7,14.7-14.7h44.6c17.4,0,31.6-14.1,31.6-31.6
	c0-8.7-3.6-16.6-9.3-22.4c-5.7-5.7-13.6-9.2-22.3-9.2H523.7c-8.1,0-14.7-6.6-14.7-14.7v0c0-8.1,6.6-14.7,14.7-14.7h374.7
	c17.5,0,31.6-14.1,31.6-31.6c0-8.7-3.5-16.6-9.3-22.4c-5.7-5.8-13.6-9.3-22.4-9.3H782.1c-8.1,0-14.7-6.6-14.7-14.7v0
	c0-8.1,6.6-14.7,14.7-14.7l49.3,0c18.1,0,33.8-14.8,33.1-32.8c-0.3-8.2-3.8-15.6-9.3-21c-5.7-5.7-13.6-9.3-22.3-9.3H387.2
	c-8.1,0-14.7-6.6-14.7-14.7v0c0-8.1,6.6-14.7,14.7-14.7h224.6c17.4,0,31.6-14.1,31.6-31.6c0-8.7-3.5-16.6-9.2-22.3
	C628.4,3.6,620.5,0,611.8,0l-344,0c-16.7,0-31.6,12.4-32.9,29c-0.8,9.7,2.9,18.6,9.1,24.9c5.7,5.8,13.6,9.3,22.4,9.3h62.1
	c8.1,0,14.7,6.6,14.7,14.7v0c0,8.1-6.6,14.7-14.7,14.7H203.2c-17.5,0-31.6,14.1-31.6,31.6c0,8.7,3.6,16.6,9.3,22.3
	c5.7,5.7,13.6,9.3,22.4,9.3h10.3c8.1,0,14.7,6.6,14.7,14.7v0c0,8.1-6.6,14.7-14.7,14.7l-94.7,0c-16.8,0-31.7,12.5-32.9,29.3
	c-0.7,9.6,2.9,18.4,9.2,24.6c5.7,5.7,13.6,9.3,22.4,9.3H465c8.1,0,14.7,6.6,14.7,14.7v0c0,8.1-6.6,14.7-14.7,14.7l-395.9,0
	c-16.9,0-31.9,12.7-32.9,29.6c-0.6,9.6,3.1,18.2,9.2,24.4c5.7,5.7,13.6,9.3,22.3,9.3h74.5c8.1,0,14.7,6.6,14.7,14.7v0
	c0,8.1-6.6,14.7-14.7,14.7l-91.2,0c-16.7,0-31.6,12.4-32.9,29c-0.8,9.7,2.8,18.6,9.2,24.9c5.7,5.7,13.6,9.3,22.4,9.3h264.1
	c8.1,0,14.6,6.6,14.6,14.6v0c0,8.1-6.6,14.6-14.6,14.6l-280.6,0C15.3,462.7-0.6,477.4,0,495.4z M723.4,185.1H272.1
	c-8.1,0-14.7-6.6-14.7-14.7v0c0-8.1,6.6-14.7,14.7-14.7h451.3c8.1,0,14.7,6.6,14.7,14.7v0C738.1,178.5,731.5,185.1,723.4,185.1z
	 M865.1,370.2H201c-8.1,0-14.7-6.6-14.7-14.7v0c0-8.1,6.6-14.7,14.7-14.7h664.1c8.1,0,14.7,6.6,14.7,14.7v0
	C879.8,363.6,873.2,370.2,865.1,370.2z M678,462.7H372.4c-8.1,0-14.6-6.6-14.6-14.6v0c0-8.1,6.6-14.6,14.6-14.6H678
	c8.1,0,14.6,6.6,14.6,14.6v0C692.6,456.2,686.1,462.7,678,462.7z M136.8,540.6L136.8,540.6c0-8.1,6.6-14.7,14.7-14.7h409.1
	c8.1,0,14.7,6.6,14.7,14.7v0c0,8.1-6.6,14.7-14.7,14.7H151.5C143.4,555.3,136.8,548.7,136.8,540.6z"/>
</svg>
