<?xml version="1.0" encoding="utf-8"?>
<!-- Generator: Adobe Illustrator 19.0.0, SVG Export Plug-In . SVG Version: 6.00 Build 0)  -->
<svg version="1.1" id="Layer_1" xmlns="http://www.w3.org/2000/svg" xmlns:xlink="http://www.w3.org/1999/xlink" x="0px" y="0px"
	 viewBox="0 0 1000 158.4" style="enable-background:new 0 0 1000 158.4;" xml:space="preserve">
<style type="text/css">
	.st0{fill:#A7A9AC;}
	.st1{fill:url(#XMLID_16_);}
</style>
<g id="XMLID_1_">
	<path id="XMLID_123_" class="st0" d="M155.8,156.7L30.7,86.5v70.2H0V0h30.7v55.1L141.6,0h68.1L65.5,72.3l151.6,84.4H155.8z"/>
	<path id="XMLID_93_" class="st0" d="M238.1,156.7V0h30.7v156.7H238.1z"/>
	<path id="XMLID_91_" class="st0" d="M554.9,158V53.6L454.2,154.2c-3.1,2.8-6.7,4.2-10.8,4.2c-4.4,0-8.1-1.5-11-4.5l-99.2-99.9V158
		h-30.7V16.8c0-4.5,1.2-8.4,3.6-11.8c2.4-3.3,5.8-5,10.2-5c4.4,0,8.6,2,12.5,5.9l114.7,115.6L559.6,5.9c3.8-4,7.9-5.9,12.3-5.9
		s7.8,1.7,10.2,5c2.4,3.3,3.6,7.2,3.6,11.8V158H554.9z"/>
	<path id="XMLID_88_" class="st0" d="M918.8,30.7v125.9H888V30.7h-81.2V0H1000v30.7H918.8z"/>
	<linearGradient id="XMLID_16_" gradientUnits="userSpaceOnUse" x1="704.3085" y1="-17.8769" x2="704.3085" y2="206.989">
		<stop  offset="0" style="stop-color:#00AEEF"/>
		<stop  offset="1" style="stop-color:#2B3990"/>
	</linearGradient>
	<path id="XMLID_80_" class="st1" d="M605.8,97.6c0.1,1.6,0.7,3.1,1.8,4.2c1.1,1.1,2.7,1.8,4.4,1.8h12c1.6,0,2.9,1.3,2.9,2.9v0
		c0,1.6-1.3,2.9-2.9,2.9l-4.6,0c-3.5,0-6.6,2.9-6.5,6.4c0.1,1.6,0.7,3.1,1.8,4.2c1.1,1.1,2.7,1.8,4.4,1.8H642c1.6,0,2.9,1.3,2.9,2.9
		l0,0c0,1.6-1.3,2.9-2.9,2.9l-1.8,0c-3.3,0-6.2,2.4-6.5,5.7c-0.1,1.9,0.6,3.7,1.8,4.9c1.1,1.1,2.7,1.8,4.4,1.8H665
		c1.5,0,2.6,1.2,2.6,2.6v0.5c0,1.5-1.2,2.6-2.6,2.6h-14.7c-3.4,0-6.2,2.8-6.2,6.2c0,1.7,0.7,3.3,1.8,4.4c1.1,1.1,2.7,1.8,4.4,1.8
		l25.5,0c3.3,0,6.2-2.4,6.5-5.7c0.1-1.9-0.6-3.7-1.8-4.9c-1.1-1.1-2.7-1.8-4.4-1.8l0,0c-1.5,0-2.6-1.2-2.6-2.6v-0.5
		c0-1.5,1.2-2.6,2.6-2.6l3.1,0c3.3,0,6.3-2.5,6.5-5.8c0.1-1.9-0.6-3.6-1.8-4.9c-1.1-1.1-2.7-1.8-4.4-1.8h-25.8
		c-1.6,0-2.9-1.3-2.9-2.9v0c0-1.6,1.3-2.9,2.9-2.9h108.3c3.4,0,6.2-2.8,6.2-6.2c0-1.7-0.7-3.3-1.8-4.4c-1.1-1.1-2.7-1.8-4.4-1.8
		h-34.1c-1.6,0-2.9-1.3-2.9-2.9v0c0-1.6,1.3-2.9,2.9-2.9h55c3.4,0,6.2-2.8,6.2-6.2c0-1.7-0.7-3.3-1.8-4.4c-1.1-1.1-2.7-1.8-4.4-1.8
		H751c-1.6,0-2.9-1.3-2.9-2.9v0c0-1.6,1.3-2.9,2.9-2.9l45.4,0c3.5,0,6.7-2.9,6.5-6.4c-0.1-1.6-0.7-3.1-1.8-4.2
		c-1.1-1.1-2.7-1.8-4.4-1.8h-8.8c-1.6,0-2.9-1.3-2.9-2.9v0c0-1.6,1.3-2.9,2.9-2.9h8.8c3.4,0,6.2-2.8,6.2-6.2c0-1.7-0.7-3.3-1.8-4.4
		c-1.1-1.1-2.7-1.8-4.4-1.8H709c-1.6,0-2.9-1.3-2.9-2.9v0c0-1.6,1.3-2.9,2.9-2.9h73.9c3.4,0,6.2-2.8,6.2-6.2c0-1.7-0.7-3.3-1.8-4.4
		c-1.1-1.1-2.7-1.8-4.4-1.8h-22.9c-1.6,0-2.9-1.3-2.9-2.9v0c0-1.6,1.3-2.9,2.9-2.9l9.7,0c3.6,0,6.7-2.9,6.5-6.5
		c-0.1-1.6-0.8-3.1-1.8-4.1c-1.1-1.1-2.7-1.8-4.4-1.8h-87.9c-1.6,0-2.9-1.3-2.9-2.9v0c0-1.6,1.3-2.9,2.9-2.9h44.3
		c3.4,0,6.2-2.8,6.2-6.2c0-1.7-0.7-3.3-1.8-4.4c-1.1-1.1-2.7-1.8-4.4-1.8l-67.8,0c-3.3,0-6.2,2.4-6.5,5.7c-0.1,1.9,0.6,3.7,1.8,4.9
		c1.1,1.1,2.7,1.8,4.4,1.8h12.2c1.6,0,2.9,1.3,2.9,2.9v0c0,1.6-1.3,2.9-2.9,2.9h-24.7c-3.4,0-6.2,2.8-6.2,6.2c0,1.7,0.7,3.3,1.8,4.4
		c1.1,1.1,2.7,1.8,4.4,1.8h2c1.6,0,2.9,1.3,2.9,2.9v0c0,1.6-1.3,2.9-2.9,2.9l-18.7,0c-3.3,0-6.3,2.5-6.5,5.8
		c-0.1,1.9,0.6,3.6,1.8,4.9c1.1,1.1,2.7,1.8,4.4,1.8h68.5c1.6,0,2.9,1.3,2.9,2.9v0c0,1.6-1.3,2.9-2.9,2.9l-78,0
		c-3.3,0-6.3,2.5-6.5,5.8c-0.1,1.9,0.6,3.6,1.8,4.8c1.1,1.1,2.7,1.8,4.4,1.8h14.7c1.6,0,2.9,1.3,2.9,2.9v0c0,1.6-1.3,2.9-2.9,2.9
		l-18,0c-3.3,0-6.2,2.4-6.5,5.7c-0.1,1.9,0.6,3.7,1.8,4.9c1.1,1.1,2.7,1.8,4.4,1.8h52.1c1.6,0,2.9,1.3,2.9,2.9v0
		c0,1.6-1.3,2.9-2.9,2.9l-55.3,0C608.8,91.2,605.6,94.1,605.8,97.6z M748.3,36.5h-89c-1.6,0-2.9-1.3-2.9-2.9v0
		c0-1.6,1.3-2.9,2.9-2.9h89c1.6,0,2.9,1.3,2.9,2.9v0C751.2,35.2,749.9,36.5,748.3,36.5z M776.3,73H645.4c-1.6,0-2.9-1.3-2.9-2.9v0
		c0-1.6,1.3-2.9,2.9-2.9h130.9c1.6,0,2.9,1.3,2.9,2.9v0C779.2,71.7,777.9,73,776.3,73z M739.4,91.2h-60.2c-1.6,0-2.9-1.3-2.9-2.9v0
		c0-1.6,1.3-2.9,2.9-2.9h60.2c1.6,0,2.9,1.3,2.9,2.9v0C742.3,89.9,741,91.2,739.4,91.2z M632.7,106.6L632.7,106.6
		c0-1.6,1.3-2.9,2.9-2.9h80.6c1.6,0,2.9,1.3,2.9,2.9v0c0,1.6-1.3,2.9-2.9,2.9h-80.6C634,109.5,632.7,108.2,632.7,106.6z"/>
</g>
</svg>
