<?xml version="1.0" encoding="utf-8"?>
<!-- Generator: Adobe Illustrator 19.0.0, SVG Export Plug-In . SVG Version: 6.00 Build 0)  -->
<svg version="1.1" id="Layer_1" xmlns="http://www.w3.org/2000/svg" xmlns:xlink="http://www.w3.org/1999/xlink" x="0px" y="0px"
	 viewBox="0 0 1000 126.6" style="enable-background:new 0 0 1000 126.6;" xml:space="preserve">
<style type="text/css">
	.st0{fill:url(#XMLID_40_);}
	.st1{fill:#A7A9AC;}
</style>
<linearGradient id="XMLID_40_" gradientUnits="userSpaceOnUse" x1="78.2082" y1="-13.2409" x2="78.2082" y2="165.1996">
	<stop  offset="0" style="stop-color:#00AEEF"/>
	<stop  offset="1" style="stop-color:#2B3990"/>
</linearGradient>
<path id="XMLID_80_" class="st0" d="M0,78.4c0,1.3,0.6,2.5,1.4,3.3c0.9,0.9,2.1,1.4,3.5,1.4h9.6c1.3,0,2.3,1,2.3,2.3l0,0
	c0,1.3-1,2.3-2.3,2.3l-3.7,0c-2.8,0-5.3,2.3-5.2,5.1c0,1.3,0.6,2.5,1.4,3.3c0.9,0.9,2.1,1.5,3.5,1.5h18.2c1.3,0,2.3,1,2.3,2.3v0
	c0,1.3-1,2.3-2.3,2.3l-1.4,0c-2.6,0-4.9,1.9-5.1,4.5c-0.1,1.5,0.4,2.9,1.4,3.9c0.9,0.9,2.1,1.5,3.5,1.5H47c1.2,0,2.1,0.9,2.1,2.1
	v0.4c0,1.2-0.9,2.1-2.1,2.1H35.3c-2.7,0-4.9,2.2-4.9,4.9c0,1.4,0.6,2.6,1.5,3.5c0.9,0.9,2.1,1.5,3.5,1.5l20.2,0
	c2.6,0,4.9-1.9,5.1-4.5c0.1-1.5-0.4-2.9-1.4-3.9c-0.9-0.9-2.1-1.5-3.5-1.5h0c-1.2,0-2.1-0.9-2.1-2.1v-0.4c0-1.2,0.9-2.1,2.1-2.1
	l2.5,0c2.6,0,5-2,5.2-4.6c0.1-1.5-0.5-2.9-1.4-3.9c-0.9-0.9-2.1-1.5-3.5-1.5H38c-1.3,0-2.3-1-2.3-2.3v0c0-1.3,1-2.3,2.3-2.3h86
	c2.7,0,4.9-2.2,4.9-4.9c0-1.4-0.5-2.6-1.4-3.5c-0.9-0.9-2.1-1.5-3.5-1.5H96.9c-1.3,0-2.3-1-2.3-2.3l0,0c0-1.3,1-2.3,2.3-2.3h43.7
	c2.7,0,4.9-2.2,4.9-4.9c0-1.4-0.5-2.6-1.5-3.5c-0.9-0.9-2.1-1.5-3.5-1.5h-25.3c-1.3,0-2.3-1-2.3-2.3l0,0c0-1.3,1-2.3,2.3-2.3l36,0
	c2.8,0,5.3-2.3,5.2-5.1c0-1.3-0.6-2.5-1.4-3.3c-0.9-0.9-2.1-1.4-3.5-1.4h-7c-1.3,0-2.3-1-2.3-2.3v0c0-1.3,1-2.3,2.3-2.3h7
	c2.7,0,4.9-2.2,4.9-4.9c0-1.4-0.6-2.6-1.5-3.5c-0.9-0.9-2.1-1.4-3.5-1.4H81.9c-1.3,0-2.3-1-2.3-2.3v0c0-1.3,1-2.3,2.3-2.3h58.6
	c2.7,0,4.9-2.2,4.9-4.9c0-1.4-0.5-2.6-1.5-3.5c-0.9-0.9-2.1-1.5-3.5-1.5h-18.2c-1.3,0-2.3-1-2.3-2.3v0c0-1.3,1-2.3,2.3-2.3l7.7,0
	c2.8,0,5.3-2.3,5.2-5.1c-0.1-1.3-0.6-2.4-1.4-3.3c-0.9-0.9-2.1-1.5-3.5-1.5H60.6c-1.3,0-2.3-1-2.3-2.3v0c0-1.3,1-2.3,2.3-2.3h35.1
	c2.7,0,4.9-2.2,4.9-4.9c0-1.4-0.5-2.6-1.4-3.5c-0.9-0.9-2.1-1.5-3.5-1.5l-53.8,0c-2.6,0-4.9,1.9-5.1,4.5c-0.1,1.5,0.4,2.9,1.4,3.9
	c0.9,0.9,2.1,1.5,3.5,1.5h9.7c1.3,0,2.3,1,2.3,2.3v0c0,1.3-1,2.3-2.3,2.3H31.8c-2.7,0-4.9,2.2-4.9,4.9c0,1.4,0.6,2.6,1.5,3.5
	c0.9,0.9,2.1,1.5,3.5,1.5h1.6c1.3,0,2.3,1,2.3,2.3v0c0,1.3-1,2.3-2.3,2.3l-14.8,0c-2.6,0-5,2-5.1,4.6c-0.1,1.5,0.5,2.9,1.4,3.9
	c0.9,0.9,2.1,1.5,3.5,1.5h54.4c1.3,0,2.3,1,2.3,2.3v0c0,1.3-1,2.3-2.3,2.3l-61.9,0c-2.6,0-5,2-5.2,4.6c-0.1,1.5,0.5,2.8,1.4,3.8
	c0.9,0.9,2.1,1.5,3.5,1.5h11.7c1.3,0,2.3,1,2.3,2.3v0c0,1.3-1,2.3-2.3,2.3L8,58.9c-2.6,0-4.9,1.9-5.1,4.5c-0.1,1.5,0.4,2.9,1.4,3.9
	c0.9,0.9,2.1,1.5,3.5,1.5h41.3c1.3,0,2.3,1,2.3,2.3l0,0c0,1.3-1,2.3-2.3,2.3l-43.9,0C2.4,73.3-0.1,75.6,0,78.4z M113.2,29.9H42.6
	c-1.3,0-2.3-1-2.3-2.3v0c0-1.3,1-2.3,2.3-2.3h70.6c1.3,0,2.3,1,2.3,2.3v0C115.4,28.9,114.4,29.9,113.2,29.9z M135.3,58.9H31.4
	c-1.3,0-2.3-1-2.3-2.3v0c0-1.3,1-2.3,2.3-2.3h103.9c1.3,0,2.3,1,2.3,2.3v0C137.6,57.8,136.6,58.9,135.3,58.9z M106.1,73.3H58.3
	c-1.3,0-2.3-1-2.3-2.3l0,0c0-1.3,1-2.3,2.3-2.3h47.8c1.3,0,2.3,1,2.3,2.3l0,0C108.3,72.3,107.3,73.3,106.1,73.3z M21.4,85.5
	L21.4,85.5c0-1.3,1-2.3,2.3-2.3h64c1.3,0,2.3,1,2.3,2.3l0,0c0,1.3-1,2.3-2.3,2.3h-64C22.4,87.8,21.4,86.8,21.4,85.5z"/>
<g id="XMLID_2_">
	<g id="XMLID_120_">
		<path id="XMLID_130_" class="st1" d="M308.7,126.3l-100-56.1v56.1h-24.6V1h24.6v44.1L297.3,1h54.4L236.5,58.8l121.2,67.5H308.7z"
			/>
		<path id="XMLID_128_" class="st1" d="M374.5,126.3V1H399v125.3H374.5z"/>
		<path id="XMLID_126_" class="st1" d="M627.7,126.3V42.9l-80.5,80.4c-2.5,2.3-5.4,3.4-8.6,3.4c-3.5,0-6.4-1.2-8.8-3.6l-79.3-79.8
			v83.1h-24.6V13.4c0-3.6,1-6.8,2.9-9.4c1.9-2.7,4.6-4,8.1-4c3.5,0,6.8,1.6,10,4.7l91.7,92.4l92.9-92.4c3.1-3.2,6.3-4.7,9.8-4.7
			s6.2,1.3,8.1,4c1.9,2.7,2.9,5.8,2.9,9.4v112.9H627.7z"/>
		<path id="XMLID_123_" class="st1" d="M807.1,121.4c-10.1,3.3-21.5,4.9-34.2,4.9h-43.9c-12.1,0-23.4-1.8-33.9-5.4
			c-14.2-4.9-21.4-12.3-21.4-22.4V29c0-10.7,7-18.4,20.9-23.1c9.6-3.3,21.1-4.9,34.4-4.9h43.9c36.8,0,55.3,9.3,55.3,28v69.5
			C828.1,108.9,821.1,116.5,807.1,121.4z M803.5,35.4c0-6.6-9.8-9.8-29.5-9.8h-46.3c-19.2,0-28.8,3.3-28.8,9.8v56.8
			c0,6.3,9.6,9.5,28.8,9.5H774c19.7,0,29.5-3.2,29.5-9.5V35.4z"/>
		<path id="XMLID_121_" class="st1" d="M935.1,25.6v100.7h-24.6V25.6h-64.9V1H1000v24.6H935.1z"/>
	</g>
</g>
</svg>
